# AST/ASF file generated using VICON BodyLanguage
# -----------------------------------------------
:version 1.10
:name VICON
:units
  mass 1.0
  length 0.45
  angle deg
:documentation
   .ast/.asf automatically generated from VICON data using
   VICON BodyBuilder and BodyLanguage model FoxedUp or BRILLIANT.MOD
:root
   order TX TY TZ RX RY RZ
   axis XYZ
   position 0 0 0  
   orientation 0 0 0 
:bonedata
  begin
     id 1 
     name lhipjoint
     direction 0.734343 -0.627749 0.258209 
     length 2.5437 
     axis 0 0 0  XYZ
  end
  begin
     id 2 
     name lfemur
     direction 0.34202 -0.939693 0  
     length 6.7391  
     axis 0 0 20  XYZ
    dof rx ry rz
    limits (-160.0 20.0)
           (-70.0 70.0)
           (-60.0 70.0)
  end
  begin
     id 3 
     name ltibia
     direction 0.34202 -0.939693 0   
     length 7.21536   
     axis 0 0 20   XYZ
    dof rx
    limits (-10.0 170.0)
  end
  begin
     id 4 
     name lfoot
     direction 0.0489572 -0.134509 0.989702   
     length 1.61313   
     axis -90 7.62852e-016 20   XYZ
    dof rx rz
    limits (-45.0 90.0)
           (-70.0 20.0)
  end
  begin
     id 5 
     name ltoes
     direction 1.53451e-011 -4.21692e-011 1   
     length 0.823104   
     axis -90 7.62852e-016 20   XYZ
    dof rx
    limits (-90.0 20.0)
  end
  begin
     id 6 
     name rhipjoint
     direction -0.746398 -0.615468 0.253157   
     length 2.59446  
     axis 0 0 0  XYZ 
  end
  begin
     id 7 
     name rfemur
     direction -0.34202 -0.939693 0   
     length 6.7075   
     axis 0 0 -20   XYZ
    dof rx ry rz
    limits (-160.0 20.0)
           (-70.0 70.0)
           (-70.0 60.0)
  end
  begin
     id 8 
     name rtibia
     direction -0.34202 -0.939693 0   
     length 7.27262   
     axis 0 0 -20   XYZ
    dof rx
    limits (-10.0 170.0)
 end
 begin
     id 9 
     name rfoot
     direction -0.0455203 -0.125066 0.991104   
     length 1.91095  
     axis -90 -7.62852e-016 -20   XYZ
    dof rx rz
    limits (-45.0 90.0)
           (-20.0 70.0)
  end
  begin
     id 10 
     name rtoes
     direction -1.53601e-011 -4.21913e-011 1   
     length 0.969037   
     axis -90 -7.62852e-016 -20   XYZ
    dof rx
    limits (-90.0 20.0)
  end
  begin
     id 11 
     name lowerback
     direction 0.0181546 0.999122 -0.0377542   
     length 1.99916   
     axis 0 0 0   XYZ
    dof rx ry rz
    limits (-20.0 45.0)
           (-30.0 30.0)
           (-30.0 30.0)
  end
  begin
     id 12 
     name upperback
     direction 0.0203486 0.99589 0.0882534   
     length 1.951   
     axis 0 0 0   XYZ
    dof rx ry rz
    limits (-20.0 45.0)
           (-30.0 30.0)
           (-30.0 30.0)
  end
  begin
     id 13 
     name thorax
     direction 0.0131685 0.994241 0.106355   
     length 1.97461   
     axis 0 0 0   XYZ
    dof rx ry rz
    limits (-20.0 45.0)
           (-30.0 30.0)
           (-30.0 30.0)
  end
  begin
     id 14 
     name lowerneck
     direction -0.0281395 0.999325 0.023617   
     length 1.7959   
     axis 0 0 0   XYZ
    dof rx ry rz
    limits (-20.0 45.0)
           (-30.0 30.0)
           (-30.0 30.0)
  end
  begin
     id 15 
     name upperneck
     direction 0.0288721 0.991984 -0.123019   
     length 1.79917   
     axis 0 0 0   XYZ
    dof rx ry rz
    limits (-20.0 45.0)
           (-30.0 30.0)
           (-30.0 30.0)
  end
  begin
     id 16
     name head
     direction 0.0133797 0.998944 -0.0439492  
     length 1.80902  
     axis 0 0 0   XYZ
    dof rx ry rz
    limits (-20.0 45.0)
           (-30.0 30.0)
           (-30.0 30.0)
  end
  begin
     id 17 
     name lclavicle
     direction 0.919195 0.377107 0.113449  
     length 3.17815  
     axis 0 0 0   XYZ
    dof ry rz
    limits (-20.0 10.0)
           (0.0 20.0)
  end
  begin
     id 18 
     name lhumerus
     direction 1 -4.48959e-011 2.13129e-027   
     length 4.84137   
     axis 180 -30 -90   XYZ
    dof rx ry rz
    limits (-60.0 90.0)
           (-90.0 90.0)
           (-90.0 90.0)
  end
  begin
     id 19
     name lradius
     direction 1 -4.48957e-011 -6.30627e-028   
     length 3.2452   
     axis 180 -30 -90   XYZ
    dof rx
    limits (-10.0 170.0)
  end
  begin
     id 20
     name lwrist
     direction 1 -4.4901e-011 9.13299e-027   
     length 1.6226   
     axis -6.84618e-015 90 90   XYZ
    dof ry
    limits (-180.0 0.0)
 end
  begin
     id 21 
     name lhand
     direction 1 -4.48816e-011 1.82293e-026   
     length 0.521221   
     axis -1.16502e-014 90 90   XYZ
    dof rx rz
    limits (-90.0 90.0)
           (-45.0 45.0)
  end
  begin
     id 22 
     name lfingers
     direction 1 -4.49108e-011 3.65687e-026   
     length 0.420221   
     axis -2.33008e-014 90 90   XYZ
    dof rx
    limits (0.0 90.0)
  end
  begin
     id 23
     name lthumb
     direction 0.707107 -6.34943e-011 0.707107   
     length 0.603356   
     axis -90 45 5.69224e-014   XYZ
    dof rx rz
    limits (-45.0 45.0)
           (-45.0 45.0)
  end
  begin
     id 24 
     name rclavicle
     direction -0.90847 0.38596 0.160368   
     length 3.12973  
     axis 0 0 0   XYZ 
    dof ry rz
    limits (-10.0 20.0)
           (-20.0 0.0)
  end
  begin
     id 25 
     name rhumerus
     direction -1 -4.48974e-011 4.47268e-028  
     length 4.72284   
     axis 180 30 90   XYZ
    dof rx ry rz
    limits (-90.0 60.0)
           (-90.0 90.0)
           (-90.0 90.0)
  end
  begin
     id 26 
     name rradius
     direction -1 -4.48969e-011 3.43203e-027   
     length 3.23459   
     axis 180 30 90   XYZ
    dof rx
    limits (-10.0 170.0)
  end
  begin
     id 27 
     name rwrist
     direction -1 -4.48969e-011 9.12911e-027   
     length 1.6173   
     axis -6.84618e-015 -90 -90   XYZ
    dof ry
    limits (-180.0 0.0)
  end
  begin
     id 28
     name rhand
     direction -1 -4.49194e-011 1.83006e-026   
     length 0.307416   
     axis -1.16502e-014 -90 -90   XYZ
    dof rx rz
    limits (-90.0 90.0)
           (-45.0 45.0)
  end
  begin
     id 29
     name rfingers
     direction -1 -4.48423e-011 3.63103e-026   
     length 0.247847   
     axis -2.33008e-014 -90 -90   XYZ
    dof rx
    limits (0.0 90.0)
  end
  begin
     id 30
     name rthumb
     direction -0.707107 -6.34802e-011 0.707107   
     length 0.35586   
     axis -90 -45 -5.69224e-014   XYZ
    dof rx rz
    limits (-45.0 45.0)
           (-45.0 45.0)
  end
:hierarchy
  begin
    root lhipjoint rhipjoint lowerback
    lhipjoint lfemur
    lfemur ltibia
    ltibia lfoot
    lfoot ltoes
    rhipjoint rfemur
    rfemur rtibia
    rtibia rfoot
    rfoot rtoes
    lowerback upperback
    upperback thorax
    thorax lowerneck lclavicle rclavicle
    lowerneck upperneck
    upperneck head
    lclavicle lhumerus
    lhumerus lradius
    lradius lwrist
    lwrist lhand lthumb
    lhand lfingers
    rclavicle rhumerus
    rhumerus rradius
    rradius rwrist
    rwrist rhand rthumb
    rhand rfingers
  end

#!OML:ASF H:\Terrain\Patient Classification 1\Animal1\Tuesday\Animal1.ASF
:FULLY-SPECIFIED
:DEGREES
1008
root 3.49851 15.9978 -4.16794 40.3804 -35.2943 -0.428191
lowerback 20.0189 -1.79561 3.94423
upperback -6.23894 -0.413248 5.69534
thorax -18.8153 -0.14045 4.6923
lowerneck -4.51014 1.88889 -3.45668
upperneck -20.9355 2.91268 4.10116
head -5.69029 1.26006 1.79713
rclavicle 2.70347e-014 -1.59028e-014
rhumerus -26.6526 -35.966 -4.31788
rradius 28.3019
rwrist -70.0449
rhand 14.9567 4.89379
rfingers 7.12502
rthumb 39.8109 -20.389
lclavicle 2.70347e-014 -1.59028e-014
lhumerus -15.6465 45.1032 11.3792
lradius 27.5583
lwrist 12.9669
lhand 73.1518 42.5057
lfingers 7.12502
lthumb 72.1717 325.336
rfemur -67.8864 10.7118 19.7081
rtibia 39.1324
rfoot -6.86857 -8.86462
rtoes -1.48888
lfemur -52.9791 -10.9031 -0.863443
ltibia 55.7091
lfoot -1.35526 2.24363
ltoes 7.69465
1009
root 3.49914 15.9958 -4.15218 40.165 -35.1598 -0.36065
lowerback 19.7964 -1.899 3.88146
upperback -6.33759 -0.576221 5.74675
thorax -18.79 -0.2006 4.84378
lowerneck -4.10568 2.00072 -2.82537
upperneck -20.8764 2.96416 3.46791
head -5.7247 1.27765 1.4824
rclavicle 7.15625e-014 1.43125e-014
rhumerus -29.321 -36.2831 -1.7127
rradius 28.1874
rwrist -70.1255
rhand 10.2071 4.11484
rfingers 7.12502
rthumb 35.3227 -22.3652
lclavicle 7.15625e-014 1.43125e-014
lhumerus -18.6266 45.2226 8.37695
lradius 27.5801
lwrist 13.2893
lhand 65.3574 43.436
lfingers 7.12502
lthumb 74.86 351.31
rfemur -67.628 10.7151 19.6098
rtibia 39.044
rfoot -6.83899 -9.00978
rtoes -0.952544
lfemur -52.7267 -11.0953 -0.938789
ltibia 55.4649
lfoot -1.21906 2.37169
ltoes 8.17512
1010
root 3.49534 16.0098 -4.13304 40.0079 -35.0725 -0.466283
lowerback 19.5433 -1.88226 4.09634
upperback -6.39108 -0.509958 5.76773
thorax -18.7034 -0.198558 4.71198
lowerneck -3.61245 2.01446 -2.6808
upperneck -21.0193 2.93363 3.15905
head -5.84554 1.26908 1.35599
rclavicle -1.11319e-014 2.94201e-014
rhumerus -32.3872 -35.8813 1.22786
rradius 28.28
rwrist -70.8209
rhand 4.63365 2.8397
rfingers 7.12502
rthumb 30.0205 -24.7439
lclavicle -1.11319e-014 2.94201e-014
lhumerus -21.2359 45.6389 5.63926
lradius 27.2276
lwrist 13.0825
lhand 58.3887 41.6903
lfingers 7.12502
lthumb 74.1733 374.84
rfemur -67.2134 10.8006 19.6705
rtibia 38.8967
rfoot -6.8048 -9.23824
rtoes -1.30027
lfemur -52.3098 -11.1824 -0.94451
ltibia 55.1839
lfoot -1.28736 2.90996
ltoes 6.09676
1011
root 3.48596 16.04 -4.11201 39.6924 -35.2077 -0.332021
lowerback 19.3046 -1.80608 4.11528
upperback -6.5055 -0.417679 5.74907
thorax -18.7011 -0.163429 4.64205
lowerneck -2.93872 1.89697 -3.48901
upperneck -21.1843 2.82316 3.58685
head -6.02365 1.24507 1.62706
rclavicle -4.21423e-014 -3.65764e-014
rhumerus -35.3448 -35.199 4.27977
rradius 28.388
rwrist -71.3789
rhand -1.21637 1.75449
rfingers 7.12502
rthumb 24.4248 -26.7085
lclavicle -4.21423e-014 -3.65764e-014
lhumerus -24.1685 45.9241 2.86069
lradius 27.0992
lwrist 12.2995
lhand 51.7202 40.5465
lfingers 7.12502
lthumb 71.0348 392.661
rfemur -66.7485 10.9398 19.4084
rtibia 38.7384
rfoot -6.67488 -9.54336
rtoes -2.41685
lfemur -51.7753 -11.2923 -1.27265
ltibia 54.8933
lfoot -1.37282 3.54503
ltoes 5.72488
1012
root 3.48034 16.0542 -4.09065 39.2538 -35.5436 -0.0353784
lowerback 19.1834 -1.98254 3.59296
upperback -6.3687 -0.854385 5.51082
thorax -18.4101 -0.319186 4.78241
lowerneck -3.16871 2.14601 -2.5707
upperneck -21.1357 3.15531 3.38563
head -5.96476 1.35014 1.39562
rclavicle -3.65764e-014 4.29375e-014
rhumerus -38.014 -36.482 6.70549
rradius 28.1173
rwrist -70.1359
rhand -6.36626 1.06484
rfingers 7.12502
rthumb 19.4802 -27.9793
lclavicle -3.65764e-014 4.29375e-014
lhumerus -28.0156 46.6057 -1.70731
lradius 27.1172
lwrist 11.0054
lhand 46.2566 42.1638
lfingers 7.12502
lthumb 67.3312 404.908
rfemur -66.3161 11.2198 18.7915
rtibia 38.5256
rfoot -6.49351 -9.78064
rtoes -2.39171
lfemur -51.2078 -11.367 -1.85597
ltibia 54.6338
lfoot -1.1133 3.37872
ltoes 13.2734
1013
root 3.47785 16.0527 -4.07344 39.055 -35.9606 0.0618331
lowerback 19.0001 -1.8617 3.1685
upperback -6.44606 -0.83054 5.39875
thorax -18.3813 -0.269804 4.87622
lowerneck -2.75748 2.15939 -2.26059
upperneck -21.2237 3.14695 3.17823
head -6.05404 1.33367 1.27293
rclavicle 5.84427e-014 -4.21423e-014
rhumerus -41.2008 -36.4721 9.92273
rradius 28.1315
rwrist -69.7288
rhand -12.0977 0.650233
rfingers 7.12502
rthumb 13.9628 -28.8609
lclavicle 5.84427e-014 -4.21423e-014
lhumerus -31.5178 47.7813 -5.7432
lradius 26.8932
lwrist 8.41107
lhand 40.8714 44.218
lfingers 7.12502
lthumb 63.1135 414.253
rfemur -66.04 11.6346 18.2634
rtibia 38.2475
rfoot -6.42035 -9.94208
rtoes -1.6029
lfemur -50.7759 -11.2758 -2.29117
ltibia 54.4096
lfoot -0.754716 3.23099
ltoes 18.8951
1014
root 3.47021 16.0668 -4.05579 39.1815 -36.1603 -0.246901
lowerback 18.7388 -1.69444 3.18977
upperback -6.62372 -0.593025 5.49127
thorax -18.4556 -0.159659 4.89401
lowerneck -2.33663 2.09117 -2.59203
upperneck -21.0367 3.05161 3.23041
head -6.06818 1.31252 1.3442
rclavicle 3.1408e-014 -8.90555e-014
rhumerus -44.0691 -35.3874 13.0355
rradius 28.2656
rwrist -70.301
rhand -18.2483 0.919068
rfingers 7.12502
rthumb 8.03068 -28.9084
lclavicle 3.1408e-014 -8.90555e-014
lhumerus -34.4433 47.0037 -8.5875
lradius 26.8326
lwrist 7.04417
lhand 34.3728 46.0684
lfingers 7.12502
lthumb 57.5894 422.153
rfemur -65.7426 12.0223 18.2648
rtibia 37.9284
rfoot -6.45985 -9.99974
rtoes -1.31449
lfemur -50.4224 -11.087 -2.26415
ltibia 54.1955
lfoot -0.504778 3.40755
ltoes 18.4219
1015
root 3.45984 16.1021 -4.03276 39.1805 -36.2219 -0.504053
lowerback 18.5149 -1.57132 3.44261
upperback -6.7448 -0.367575 5.50133
thorax -18.4836 -0.0905611 4.68266
lowerneck -2.27439 1.93026 -3.34944
upperneck -20.5807 2.91101 3.85927
head -5.94689 1.267 1.67627
rclavicle -1.19271e-014 2.62396e-014
rhumerus -46.834 -34.0006 16.0157
rradius 28.3105
rwrist -71.2345
rhand -24.2615 1.57383
rfingers 7.12502
rthumb 2.22481 -28.3943
lclavicle -1.19271e-014 2.62396e-014
lhumerus -36.6003 45.2814 -10.5238
lradius 26.8043
lwrist 6.3618
lhand 27.3366 48.885
lfingers 7.12502
lthumb 51.2973 429.399
rfemur -65.2177 12.2406 18.4059
rtibia 37.5224
rfoot -6.47776 -9.98771
rtoes -1.32792
lfemur -50.0059 -11.0242 -2.26746
ltibia 53.9423
lfoot -0.192503 3.57502
ltoes 15.3477
1016
root 3.45492 16.125 -4.01009 38.971 -36.4171 -0.548238
lowerback 18.3839 -1.45067 3.50143
upperback -6.80829 -0.205859 5.42542
thorax -18.4883 -0.0337885 4.50109
lowerneck -2.17411 1.75287 -4.00966
upperneck -20.2692 2.7443 4.46957
head -5.87293 1.19879 1.9871
rclavicle -1.11319e-014 -7.15625e-014
rhumerus -49.1997 -32.3932 18.5528
rradius 28.2652
rwrist -72.2557
rhand -29.8967 2.1883
rfingers 7.12502
rthumb -3.21773 -27.7672
lclavicle -1.11319e-014 -7.15625e-014
lhumerus -39.2359 44.9611 -13.2928
lradius 26.674
lwrist 4.19772
lhand 20.9979 51.2302
lfingers 7.12502
lthumb 45.4636 434.545
rfemur -64.6407 12.4266 18.3435
rtibia 37.0683
rfoot -6.3814 -9.99107
rtoes -1.48628
lfemur -49.5369 -11.0298 -2.53006
ltibia 53.7353
lfoot -0.214306 4.10679
ltoes 9.19868
1017
root 3.45153 16.1382 -3.98582 38.8032 -36.6274 -0.69485
lowerback 18.2608 -1.38649 3.55838
upperback -6.85046 -0.116218 5.39187
thorax -18.4671 -0.00522264 4.39493
lowerneck -1.74885 1.875 -3.39288
upperneck -20.1576 2.82253 3.83026
head -5.89823 1.23529 1.6707
rclavicle -2.46493e-014 8.98507e-014
rhumerus -51.3407 -31.2934 21.0418
rradius 28.1065
rwrist -72.3869
rhand -34.7935 3.36029
rfingers 7.12502
rthumb -7.94549 -26.4704
lclavicle -2.46493e-014 8.98507e-014
lhumerus -42.1549 44.3238 -16.2659
lradius 26.7205
lwrist 2.13007
lhand 16.642 52.7477
lfingers 7.12502
lthumb 41.3949 437.537
rfemur -64.0436 12.6365 18.3717
rtibia 36.6187
rfoot -6.28487 -9.99457
rtoes -2.46057
lfemur -48.9598 -11.0526 -2.61807
ltibia 53.5587
lfoot -0.420212 4.55929
ltoes 7.57935
1018
root 3.45096 16.1446 -3.96252 38.8543 -36.7252 -1.03295
lowerback 18.0213 -1.3823 3.81621
upperback -6.91237 -0.0676542 5.34401
thorax -18.3949 -0.0214086 4.16708
lowerneck -1.73061 1.6912 -3.89471
upperneck -19.8401 2.66706 4.55959
head -5.80746 1.15128 1.99278
rclavicle 4.85035e-014 8.18993e-014
rhumerus -53.5984 -30.7939 23.759
rradius 27.7824
rwrist -71.5579
rhand -39.2413 5.7408
rfingers 7.12502
rthumb -12.2363 -23.8812
lclavicle 4.85035e-014 8.18993e-014
lhumerus -44.7142 43.5585 -19.3496
lradius 26.3495
lwrist 0.226714
lhand 32.1297 45.6327
lfingers 7.12502
lthumb 55.6108 423.32
rfemur -63.6024 12.8332 18.595
rtibia 36.2685
rfoot -6.22196 -9.9871
rtoes -3.52064
lfemur -48.586 -11.0118 -2.44306
ltibia 53.4713
lfoot -0.0634621 3.52285
ltoes 21.0818
1019
root 3.45453 16.1549 -3.93999 38.9663 -36.7527 -1.34934
lowerback 17.7344 -1.38064 4.15352
upperback -7.00985 -0.00553428 5.29564
thorax -18.3384 -0.0410203 3.89051
lowerneck -1.32627 1.77825 -3.22693
upperneck -19.8009 2.72656 4.05903
head -5.85261 1.16468 1.71409
rclavicle 1.07344e-014 3.33958e-014
rhumerus -55.8279 -30.6204 26.8897
rradius 27.3071
rwrist -70.0276
rhand -43.2436 8.36201
rfingers 7.12502
rthumb -16.093 -20.9898
lclavicle 1.07344e-014 3.33958e-014
lhumerus -47.6846 44.2677 -23.6948
lradius 25.2592
lwrist -2.99436
lhand 5.23671 61.5397
lfingers 7.12502
lthumb 30.5957 449.017
rfemur -63.2891 12.941 18.8423
rtibia 36.0302
rfoot -6.13545 -9.9553
rtoes -4.25722
lfemur -48.4129 -10.9819 -2.2682
ltibia 53.4569
lfoot 0.518483 2.5885
ltoes 28.6114
1020
root 3.45929 16.1705 -3.91867 38.8498 -36.976 -1.34732
lowerback 17.4629 -1.32999 4.2391
upperback -7.12107 0.0492564 5.17051
thorax -18.3041 -0.0398521 3.67024
lowerneck -0.832788 1.82065 -3.41712
upperneck -19.721 2.81476 4.30895
head -5.91981 1.20405 1.81613
rclavicle -6.63941e-014 1.27222e-014
rhumerus -57.8305 -30.2617 30.0283
rradius 26.935
rwrist -68.3509
rhand -47.3669 11.3015
rfingers 7.12502
rthumb -20.0599 -17.683
lclavicle -6.63941e-014 1.27222e-014
lhumerus -51.7738 46.0663 -29.3935
lradius 24.4146
lwrist -7.23872
lhand 8.39832 63.2869
lfingers 7.12502
lthumb 33.6057 269.843
rfemur -63.0126 13.0251 18.7053
rtibia 35.8398
rfoot -6.20761 -9.86766
rtoes -3.90637
lfemur -48.1496 -11.0579 -2.46639
ltibia 53.4118
lfoot 0.330064 3.38286
ltoes 20.7226
